<mxfile host="app.diagrams.net" modified="2021-01-31T11:20:55.480Z" agent="5.0 (X11)" etag="JTrZZtW8N7XQuM4kBEs1" version="14.2.9" type="github">
  <diagram id="C5RBs43oDa-KdzZeNtuy" name="Page-1">
    <mxGraphModel dx="918" dy="448" grid="1" gridSize="10" guides="1" tooltips="1" connect="1" arrows="1" fold="1" page="1" pageScale="1" pageWidth="827" pageHeight="1169" math="0" shadow="0">
      <root>
        <mxCell id="WIyWlLk6GJQsqaUBKTNV-0" />
        <mxCell id="WIyWlLk6GJQsqaUBKTNV-1" parent="WIyWlLk6GJQsqaUBKTNV-0" />
        <mxCell id="k8J-BfT9J23FdX3bnyfp-30" style="edgeStyle=orthogonalEdgeStyle;rounded=0;orthogonalLoop=1;jettySize=auto;html=1;entryX=0.5;entryY=0;entryDx=0;entryDy=0;" edge="1" parent="WIyWlLk6GJQsqaUBKTNV-1" source="k8J-BfT9J23FdX3bnyfp-0" target="k8J-BfT9J23FdX3bnyfp-8">
          <mxGeometry relative="1" as="geometry" />
        </mxCell>
        <mxCell id="k8J-BfT9J23FdX3bnyfp-0" value="&lt;div&gt;BAŞLA&lt;/div&gt;" style="rounded=1;whiteSpace=wrap;html=1;" vertex="1" parent="WIyWlLk6GJQsqaUBKTNV-1">
          <mxGeometry x="245" y="50" width="120" height="40" as="geometry" />
        </mxCell>
        <mxCell id="k8J-BfT9J23FdX3bnyfp-7" style="edgeStyle=orthogonalEdgeStyle;rounded=0;orthogonalLoop=1;jettySize=auto;html=1;entryX=0;entryY=0.5;entryDx=0;entryDy=0;" edge="1" parent="WIyWlLk6GJQsqaUBKTNV-1" source="k8J-BfT9J23FdX3bnyfp-8" target="k8J-BfT9J23FdX3bnyfp-11">
          <mxGeometry relative="1" as="geometry" />
        </mxCell>
        <mxCell id="k8J-BfT9J23FdX3bnyfp-33" value="" style="edgeStyle=orthogonalEdgeStyle;rounded=0;orthogonalLoop=1;jettySize=auto;html=1;" edge="1" parent="WIyWlLk6GJQsqaUBKTNV-1" source="k8J-BfT9J23FdX3bnyfp-8" target="k8J-BfT9J23FdX3bnyfp-32">
          <mxGeometry relative="1" as="geometry" />
        </mxCell>
        <mxCell id="k8J-BfT9J23FdX3bnyfp-8" value="Kurulum yapılmış mı?" style="rhombus;whiteSpace=wrap;html=1;shadow=0;fontFamily=Helvetica;fontSize=12;align=center;strokeWidth=1;spacing=6;spacingTop=-4;" vertex="1" parent="WIyWlLk6GJQsqaUBKTNV-1">
          <mxGeometry x="220" y="110" width="170" height="80" as="geometry" />
        </mxCell>
        <mxCell id="k8J-BfT9J23FdX3bnyfp-9" value="&lt;div&gt;HAYIR&lt;/div&gt;" style="text;html=1;strokeColor=none;fillColor=none;align=center;verticalAlign=middle;whiteSpace=wrap;rounded=0;" vertex="1" parent="WIyWlLk6GJQsqaUBKTNV-1">
          <mxGeometry x="395" y="130" width="40" height="20" as="geometry" />
        </mxCell>
        <mxCell id="k8J-BfT9J23FdX3bnyfp-10" style="edgeStyle=orthogonalEdgeStyle;rounded=0;orthogonalLoop=1;jettySize=auto;html=1;" edge="1" parent="WIyWlLk6GJQsqaUBKTNV-1" source="k8J-BfT9J23FdX3bnyfp-11" target="k8J-BfT9J23FdX3bnyfp-13">
          <mxGeometry relative="1" as="geometry">
            <mxPoint x="625" y="150" as="targetPoint" />
          </mxGeometry>
        </mxCell>
        <mxCell id="k8J-BfT9J23FdX3bnyfp-11" value="Kurulum işlemini başlat." style="shape=process;whiteSpace=wrap;html=1;backgroundOutline=1;" vertex="1" parent="WIyWlLk6GJQsqaUBKTNV-1">
          <mxGeometry x="455" y="120" width="120" height="60" as="geometry" />
        </mxCell>
        <mxCell id="k8J-BfT9J23FdX3bnyfp-12" style="edgeStyle=orthogonalEdgeStyle;rounded=0;orthogonalLoop=1;jettySize=auto;html=1;" edge="1" parent="WIyWlLk6GJQsqaUBKTNV-1" source="k8J-BfT9J23FdX3bnyfp-13" target="k8J-BfT9J23FdX3bnyfp-16">
          <mxGeometry relative="1" as="geometry" />
        </mxCell>
        <mxCell id="k8J-BfT9J23FdX3bnyfp-13" value="AP modunda çalış.&lt;br&gt;&lt;div&gt;Bağlantı bekle.&lt;/div&gt;" style="rounded=0;whiteSpace=wrap;html=1;" vertex="1" parent="WIyWlLk6GJQsqaUBKTNV-1">
          <mxGeometry x="595" y="120" width="120" height="60" as="geometry" />
        </mxCell>
        <mxCell id="k8J-BfT9J23FdX3bnyfp-14" style="edgeStyle=orthogonalEdgeStyle;rounded=0;orthogonalLoop=1;jettySize=auto;html=1;entryX=0.5;entryY=0;entryDx=0;entryDy=0;" edge="1" parent="WIyWlLk6GJQsqaUBKTNV-1" source="k8J-BfT9J23FdX3bnyfp-16" target="k8J-BfT9J23FdX3bnyfp-13">
          <mxGeometry relative="1" as="geometry">
            <mxPoint x="820" y="30" as="targetPoint" />
            <Array as="points">
              <mxPoint x="820" y="90" />
              <mxPoint x="655" y="90" />
            </Array>
          </mxGeometry>
        </mxCell>
        <mxCell id="k8J-BfT9J23FdX3bnyfp-15" style="edgeStyle=orthogonalEdgeStyle;rounded=0;orthogonalLoop=1;jettySize=auto;html=1;entryX=0.5;entryY=0;entryDx=0;entryDy=0;" edge="1" parent="WIyWlLk6GJQsqaUBKTNV-1" source="k8J-BfT9J23FdX3bnyfp-16" target="k8J-BfT9J23FdX3bnyfp-19">
          <mxGeometry relative="1" as="geometry" />
        </mxCell>
        <mxCell id="k8J-BfT9J23FdX3bnyfp-16" value="Bağlantı var mı?" style="rhombus;whiteSpace=wrap;html=1;" vertex="1" parent="WIyWlLk6GJQsqaUBKTNV-1">
          <mxGeometry x="755" y="110" width="130" height="80" as="geometry" />
        </mxCell>
        <mxCell id="k8J-BfT9J23FdX3bnyfp-17" value="&lt;div&gt;HAYIR&lt;/div&gt;" style="text;html=1;strokeColor=none;fillColor=none;align=center;verticalAlign=middle;whiteSpace=wrap;rounded=0;" vertex="1" parent="WIyWlLk6GJQsqaUBKTNV-1">
          <mxGeometry x="720" y="70" width="40" height="20" as="geometry" />
        </mxCell>
        <mxCell id="k8J-BfT9J23FdX3bnyfp-18" value="" style="edgeStyle=orthogonalEdgeStyle;rounded=0;orthogonalLoop=1;jettySize=auto;html=1;" edge="1" parent="WIyWlLk6GJQsqaUBKTNV-1" source="k8J-BfT9J23FdX3bnyfp-19" target="k8J-BfT9J23FdX3bnyfp-21">
          <mxGeometry relative="1" as="geometry" />
        </mxCell>
        <mxCell id="k8J-BfT9J23FdX3bnyfp-19" value="&lt;div&gt;Bağlanan kişiye formu otomatik aç.&lt;/div&gt;" style="rounded=0;whiteSpace=wrap;html=1;" vertex="1" parent="WIyWlLk6GJQsqaUBKTNV-1">
          <mxGeometry x="750" y="210" width="140" height="60" as="geometry" />
        </mxCell>
        <mxCell id="k8J-BfT9J23FdX3bnyfp-20" value="" style="edgeStyle=orthogonalEdgeStyle;rounded=0;orthogonalLoop=1;jettySize=auto;html=1;" edge="1" parent="WIyWlLk6GJQsqaUBKTNV-1" source="k8J-BfT9J23FdX3bnyfp-21" target="k8J-BfT9J23FdX3bnyfp-23">
          <mxGeometry relative="1" as="geometry" />
        </mxCell>
        <mxCell id="k8J-BfT9J23FdX3bnyfp-21" value="&lt;div&gt;Kablosuz ağ bilgileri&lt;/div&gt;&lt;div&gt;ve bağlanılacak&lt;/div&gt;&lt;div&gt;sunucu bilgilerini al.&lt;/div&gt;" style="shape=parallelogram;whiteSpace=wrap;html=1;boundedLbl=1;rounded=0;" vertex="1" parent="WIyWlLk6GJQsqaUBKTNV-1">
          <mxGeometry x="715" y="285" width="210" height="70" as="geometry" />
        </mxCell>
        <mxCell id="k8J-BfT9J23FdX3bnyfp-22" value="" style="edgeStyle=orthogonalEdgeStyle;rounded=0;orthogonalLoop=1;jettySize=auto;html=1;" edge="1" parent="WIyWlLk6GJQsqaUBKTNV-1" source="k8J-BfT9J23FdX3bnyfp-23" target="k8J-BfT9J23FdX3bnyfp-26">
          <mxGeometry relative="1" as="geometry" />
        </mxCell>
        <mxCell id="k8J-BfT9J23FdX3bnyfp-23" value="Bağlantıları test et." style="whiteSpace=wrap;html=1;rounded=0;" vertex="1" parent="WIyWlLk6GJQsqaUBKTNV-1">
          <mxGeometry x="750" y="370" width="140" height="60" as="geometry" />
        </mxCell>
        <mxCell id="k8J-BfT9J23FdX3bnyfp-24" style="edgeStyle=orthogonalEdgeStyle;rounded=0;orthogonalLoop=1;jettySize=auto;html=1;" edge="1" parent="WIyWlLk6GJQsqaUBKTNV-1" source="k8J-BfT9J23FdX3bnyfp-26">
          <mxGeometry relative="1" as="geometry">
            <mxPoint x="720" y="345" as="targetPoint" />
            <Array as="points">
              <mxPoint x="690" y="480" />
              <mxPoint x="690" y="345" />
            </Array>
          </mxGeometry>
        </mxCell>
        <mxCell id="k8J-BfT9J23FdX3bnyfp-25" style="edgeStyle=orthogonalEdgeStyle;rounded=0;orthogonalLoop=1;jettySize=auto;html=1;entryX=0.5;entryY=0;entryDx=0;entryDy=0;" edge="1" parent="WIyWlLk6GJQsqaUBKTNV-1" source="k8J-BfT9J23FdX3bnyfp-26">
          <mxGeometry relative="1" as="geometry">
            <mxPoint x="820" y="540.0000000000001" as="targetPoint" />
          </mxGeometry>
        </mxCell>
        <mxCell id="k8J-BfT9J23FdX3bnyfp-26" value="&lt;div&gt;Bağlantılarda&lt;/div&gt;&lt;div&gt;problem var mı?&lt;/div&gt;" style="rhombus;whiteSpace=wrap;html=1;rounded=0;" vertex="1" parent="WIyWlLk6GJQsqaUBKTNV-1">
          <mxGeometry x="740" y="440" width="160" height="80" as="geometry" />
        </mxCell>
        <mxCell id="k8J-BfT9J23FdX3bnyfp-27" value="EVET" style="text;html=1;strokeColor=none;fillColor=none;align=center;verticalAlign=middle;whiteSpace=wrap;rounded=0;" vertex="1" parent="WIyWlLk6GJQsqaUBKTNV-1">
          <mxGeometry x="690" y="460" width="40" height="20" as="geometry" />
        </mxCell>
        <mxCell id="k8J-BfT9J23FdX3bnyfp-28" value="&lt;div&gt;EVET&lt;/div&gt;" style="text;html=1;strokeColor=none;fillColor=none;align=center;verticalAlign=middle;whiteSpace=wrap;rounded=0;" vertex="1" parent="WIyWlLk6GJQsqaUBKTNV-1">
          <mxGeometry x="830" y="180" width="40" height="20" as="geometry" />
        </mxCell>
        <mxCell id="k8J-BfT9J23FdX3bnyfp-29" value="&lt;div&gt;HAYIR&lt;/div&gt;" style="text;html=1;strokeColor=none;fillColor=none;align=center;verticalAlign=middle;whiteSpace=wrap;rounded=0;" vertex="1" parent="WIyWlLk6GJQsqaUBKTNV-1">
          <mxGeometry x="820" y="520" width="40" height="20" as="geometry" />
        </mxCell>
        <mxCell id="k8J-BfT9J23FdX3bnyfp-31" value="&lt;div&gt;Cihazı yeniden başlat.&lt;/div&gt;" style="rounded=1;whiteSpace=wrap;html=1;" vertex="1" parent="WIyWlLk6GJQsqaUBKTNV-1">
          <mxGeometry x="760" y="540" width="120" height="50" as="geometry" />
        </mxCell>
        <mxCell id="k8J-BfT9J23FdX3bnyfp-37" value="" style="edgeStyle=orthogonalEdgeStyle;rounded=0;orthogonalLoop=1;jettySize=auto;html=1;" edge="1" parent="WIyWlLk6GJQsqaUBKTNV-1" source="k8J-BfT9J23FdX3bnyfp-32" target="k8J-BfT9J23FdX3bnyfp-36">
          <mxGeometry relative="1" as="geometry" />
        </mxCell>
        <mxCell id="k8J-BfT9J23FdX3bnyfp-32" value="&lt;div&gt;Master cihazdan sinyal bekleniyor...&lt;/div&gt;" style="whiteSpace=wrap;html=1;shadow=0;strokeWidth=1;spacing=6;spacingTop=-4;" vertex="1" parent="WIyWlLk6GJQsqaUBKTNV-1">
          <mxGeometry x="225" y="200" width="160" height="60" as="geometry" />
        </mxCell>
        <mxCell id="k8J-BfT9J23FdX3bnyfp-42" value="" style="edgeStyle=orthogonalEdgeStyle;rounded=0;orthogonalLoop=1;jettySize=auto;html=1;" edge="1" parent="WIyWlLk6GJQsqaUBKTNV-1" source="k8J-BfT9J23FdX3bnyfp-36" target="k8J-BfT9J23FdX3bnyfp-41">
          <mxGeometry relative="1" as="geometry" />
        </mxCell>
        <mxCell id="k8J-BfT9J23FdX3bnyfp-36" value="&lt;div&gt;Sinyal geldi mi?&lt;/div&gt;" style="rhombus;whiteSpace=wrap;html=1;shadow=0;strokeWidth=1;spacing=6;spacingTop=-4;" vertex="1" parent="WIyWlLk6GJQsqaUBKTNV-1">
          <mxGeometry x="240" y="270" width="130" height="80" as="geometry" />
        </mxCell>
        <mxCell id="k8J-BfT9J23FdX3bnyfp-44" value="" style="edgeStyle=orthogonalEdgeStyle;rounded=0;orthogonalLoop=1;jettySize=auto;html=1;" edge="1" parent="WIyWlLk6GJQsqaUBKTNV-1" source="k8J-BfT9J23FdX3bnyfp-41" target="k8J-BfT9J23FdX3bnyfp-43">
          <mxGeometry relative="1" as="geometry" />
        </mxCell>
        <mxCell id="k8J-BfT9J23FdX3bnyfp-41" value="HCSR05 sensörlerinden 30 saniye boyunca, hareket verisi al." style="shape=process;whiteSpace=wrap;html=1;backgroundOutline=1;shadow=0;strokeWidth=1;spacing=6;spacingTop=-4;" vertex="1" parent="WIyWlLk6GJQsqaUBKTNV-1">
          <mxGeometry x="230" y="370" width="150" height="70" as="geometry" />
        </mxCell>
        <mxCell id="k8J-BfT9J23FdX3bnyfp-58" value="" style="edgeStyle=orthogonalEdgeStyle;rounded=0;orthogonalLoop=1;jettySize=auto;html=1;" edge="1" parent="WIyWlLk6GJQsqaUBKTNV-1" source="k8J-BfT9J23FdX3bnyfp-43" target="k8J-BfT9J23FdX3bnyfp-57">
          <mxGeometry relative="1" as="geometry" />
        </mxCell>
        <mxCell id="k8J-BfT9J23FdX3bnyfp-43" value="&lt;div&gt;&lt;br&gt;&lt;/div&gt;&lt;div&gt;İçeride insan var mı?&lt;/div&gt;" style="rhombus;whiteSpace=wrap;html=1;shadow=0;strokeWidth=1;spacing=6;spacingTop=-4;" vertex="1" parent="WIyWlLk6GJQsqaUBKTNV-1">
          <mxGeometry x="240" y="450" width="130" height="80" as="geometry" />
        </mxCell>
        <mxCell id="k8J-BfT9J23FdX3bnyfp-47" value="EVET" style="text;html=1;strokeColor=none;fillColor=none;align=center;verticalAlign=middle;whiteSpace=wrap;rounded=0;" vertex="1" parent="WIyWlLk6GJQsqaUBKTNV-1">
          <mxGeometry x="220" y="460" width="40" height="20" as="geometry" />
        </mxCell>
        <mxCell id="k8J-BfT9J23FdX3bnyfp-48" value="EVET" style="text;html=1;strokeColor=none;fillColor=none;align=center;verticalAlign=middle;whiteSpace=wrap;rounded=0;" vertex="1" parent="WIyWlLk6GJQsqaUBKTNV-1">
          <mxGeometry x="310" y="350" width="40" height="20" as="geometry" />
        </mxCell>
        <mxCell id="k8J-BfT9J23FdX3bnyfp-53" style="edgeStyle=orthogonalEdgeStyle;rounded=0;orthogonalLoop=1;jettySize=auto;html=1;entryX=0.002;entryY=0.421;entryDx=0;entryDy=0;entryPerimeter=0;" edge="1" parent="WIyWlLk6GJQsqaUBKTNV-1" source="k8J-BfT9J23FdX3bnyfp-51" target="k8J-BfT9J23FdX3bnyfp-41">
          <mxGeometry relative="1" as="geometry">
            <Array as="points">
              <mxPoint x="170" y="400" />
            </Array>
          </mxGeometry>
        </mxCell>
        <mxCell id="k8J-BfT9J23FdX3bnyfp-51" value="BUZZER&#39;dan ses çıkışı ver." style="whiteSpace=wrap;html=1;shadow=0;strokeWidth=1;spacing=6;spacingTop=-4;" vertex="1" parent="WIyWlLk6GJQsqaUBKTNV-1">
          <mxGeometry x="130" y="440" width="90" height="60" as="geometry" />
        </mxCell>
        <mxCell id="k8J-BfT9J23FdX3bnyfp-56" value="" style="endArrow=classic;html=1;entryX=1;entryY=0.75;entryDx=0;entryDy=0;exitX=0;exitY=0.5;exitDx=0;exitDy=0;" edge="1" parent="WIyWlLk6GJQsqaUBKTNV-1" source="k8J-BfT9J23FdX3bnyfp-43" target="k8J-BfT9J23FdX3bnyfp-51">
          <mxGeometry width="50" height="50" relative="1" as="geometry">
            <mxPoint x="390" y="540" as="sourcePoint" />
            <mxPoint x="440" y="490" as="targetPoint" />
          </mxGeometry>
        </mxCell>
        <mxCell id="k8J-BfT9J23FdX3bnyfp-61" value="" style="edgeStyle=orthogonalEdgeStyle;rounded=0;orthogonalLoop=1;jettySize=auto;html=1;" edge="1" parent="WIyWlLk6GJQsqaUBKTNV-1" source="k8J-BfT9J23FdX3bnyfp-57" target="k8J-BfT9J23FdX3bnyfp-60">
          <mxGeometry relative="1" as="geometry" />
        </mxCell>
        <mxCell id="k8J-BfT9J23FdX3bnyfp-57" value="&lt;div&gt;Röleleri tetikle,&lt;/div&gt;&lt;div&gt;Dezenfekte motorlarını çalıştır.&lt;br&gt;&lt;/div&gt;" style="whiteSpace=wrap;html=1;shadow=0;strokeWidth=1;spacing=6;spacingTop=-4;" vertex="1" parent="WIyWlLk6GJQsqaUBKTNV-1">
          <mxGeometry x="230" y="550" width="150" height="50" as="geometry" />
        </mxCell>
        <mxCell id="k8J-BfT9J23FdX3bnyfp-59" value="&lt;div&gt;HAYIR&lt;/div&gt;" style="text;html=1;strokeColor=none;fillColor=none;align=center;verticalAlign=middle;whiteSpace=wrap;rounded=0;" vertex="1" parent="WIyWlLk6GJQsqaUBKTNV-1">
          <mxGeometry x="310" y="530" width="40" height="20" as="geometry" />
        </mxCell>
        <mxCell id="k8J-BfT9J23FdX3bnyfp-62" style="edgeStyle=orthogonalEdgeStyle;rounded=0;orthogonalLoop=1;jettySize=auto;html=1;" edge="1" parent="WIyWlLk6GJQsqaUBKTNV-1" source="k8J-BfT9J23FdX3bnyfp-60">
          <mxGeometry relative="1" as="geometry">
            <mxPoint x="230" y="575" as="targetPoint" />
            <Array as="points">
              <mxPoint x="305" y="655" />
              <mxPoint x="200" y="655" />
              <mxPoint x="200" y="575" />
            </Array>
          </mxGeometry>
        </mxCell>
        <mxCell id="k8J-BfT9J23FdX3bnyfp-65" value="" style="edgeStyle=orthogonalEdgeStyle;rounded=0;orthogonalLoop=1;jettySize=auto;html=1;" edge="1" parent="WIyWlLk6GJQsqaUBKTNV-1" source="k8J-BfT9J23FdX3bnyfp-60" target="k8J-BfT9J23FdX3bnyfp-64">
          <mxGeometry relative="1" as="geometry" />
        </mxCell>
        <mxCell id="k8J-BfT9J23FdX3bnyfp-60" value="&lt;div&gt;&lt;br&gt;&lt;/div&gt;&lt;div&gt;Dezenfekte işlemi bitti mi?&lt;/div&gt;" style="rhombus;whiteSpace=wrap;html=1;shadow=0;strokeWidth=1;spacing=6;spacingTop=-4;" vertex="1" parent="WIyWlLk6GJQsqaUBKTNV-1">
          <mxGeometry x="240" y="620" width="130" height="70" as="geometry" />
        </mxCell>
        <mxCell id="k8J-BfT9J23FdX3bnyfp-63" value="&lt;div&gt;HAYIR&lt;/div&gt;" style="text;html=1;strokeColor=none;fillColor=none;align=center;verticalAlign=middle;whiteSpace=wrap;rounded=0;" vertex="1" parent="WIyWlLk6GJQsqaUBKTNV-1">
          <mxGeometry x="205" y="630" width="40" height="20" as="geometry" />
        </mxCell>
        <mxCell id="k8J-BfT9J23FdX3bnyfp-67" style="edgeStyle=orthogonalEdgeStyle;rounded=0;orthogonalLoop=1;jettySize=auto;html=1;" edge="1" parent="WIyWlLk6GJQsqaUBKTNV-1" source="k8J-BfT9J23FdX3bnyfp-64" target="k8J-BfT9J23FdX3bnyfp-32">
          <mxGeometry relative="1" as="geometry">
            <Array as="points">
              <mxPoint x="430" y="730" />
              <mxPoint x="430" y="230" />
            </Array>
          </mxGeometry>
        </mxCell>
        <mxCell id="k8J-BfT9J23FdX3bnyfp-64" value="Master cihaza sinyal gönder." style="whiteSpace=wrap;html=1;shadow=0;strokeWidth=1;spacing=6;spacingTop=-4;" vertex="1" parent="WIyWlLk6GJQsqaUBKTNV-1">
          <mxGeometry x="230" y="710" width="150" height="40" as="geometry" />
        </mxCell>
        <mxCell id="k8J-BfT9J23FdX3bnyfp-66" value="EVET" style="text;html=1;strokeColor=none;fillColor=none;align=center;verticalAlign=middle;whiteSpace=wrap;rounded=0;" vertex="1" parent="WIyWlLk6GJQsqaUBKTNV-1">
          <mxGeometry x="310" y="690" width="40" height="20" as="geometry" />
        </mxCell>
      </root>
    </mxGraphModel>
  </diagram>
</mxfile>
